<svg width="32" height="32" viewBox="0 0 32 32" fill="none" xmlns="http://www.w3.org/2000/svg">
<path d="M26.7076 16.2924C26.8005 16.3853 26.8743 16.4956 26.9246 16.617C26.975 16.7384 27.0009 16.8685 27.0009 16.9999C27.0009 17.1314 26.975 17.2615 26.9246 17.3829C26.8743 17.5043 26.8005 17.6146 26.7076 17.7074L16.7076 27.7074C16.6147 27.8004 16.5044 27.8742 16.383 27.9245C16.2616 27.9748 16.1315 28.0007 16.0001 28.0007C15.8687 28.0007 15.7385 27.9748 15.6171 27.9245C15.4957 27.8742 15.3854 27.8004 15.2926 27.7074L5.29257 17.7074C5.10493 17.5198 4.99951 17.2653 4.99951 16.9999C4.99951 16.7346 5.10493 16.4801 5.29257 16.2924C5.48021 16.1048 5.7347 15.9994 6.00007 15.9994C6.26543 15.9994 6.51993 16.1048 6.70757 16.2924L16.0001 25.5862L25.2926 16.2924C25.3854 16.1995 25.4957 16.1257 25.6171 16.0754C25.7385 16.0251 25.8687 15.9992 26.0001 15.9992C26.1315 15.9992 26.2616 16.0251 26.383 16.0754C26.5044 16.1257 26.6147 16.1995 26.7076 16.2924ZM15.2926 17.7074C15.3854 17.8004 15.4957 17.8742 15.6171 17.9245C15.7385 17.9748 15.8687 18.0007 16.0001 18.0007C16.1315 18.0007 16.2616 17.9748 16.383 17.9245C16.5044 17.8742 16.6147 17.8004 16.7076 17.7074L26.7076 7.70745C26.8952 7.5198 27.0006 7.26531 27.0006 6.99995C27.0006 6.73458 26.8952 6.48009 26.7076 6.29245C26.5199 6.1048 26.2654 5.99939 26.0001 5.99939C25.7347 5.99939 25.4802 6.10481 25.2926 6.29245L16.0001 15.5862L6.70757 6.29245C6.51993 6.1048 6.26543 5.99939 6.00007 5.99939C5.7347 5.99939 5.48021 6.1048 5.29257 6.29245C5.10493 6.48009 4.99951 6.73458 4.99951 6.99995C4.99951 7.26531 5.10493 7.5198 5.29257 7.70745L15.2926 17.7074Z" fill="#FC0404"/>
</svg>
